<svg width="115" height="115" viewBox="0 0 115 115" fill="none" xmlns="http://www.w3.org/2000/svg">
<circle cx="57.5" cy="57.5" r="57.5" fill="#6DB966"/>
<path d="M39.1257 36.6363V33.4545H51.7678V36.6363H47.3928V48H43.5007V36.6363H39.1257Z" fill="white"/>
<path d="M57.2312 41.8636V48H53.3107V33.4545H57.0891V39.1648H57.2028C57.449 38.4687 57.8585 37.9266 58.4315 37.5383C59.0044 37.1453 59.6933 36.9488 60.4982 36.9488C61.27 36.9488 61.94 37.124 62.5082 37.4744C63.0811 37.8248 63.5238 38.3077 63.8363 38.9233C64.1535 39.5388 64.3098 40.2443 64.305 41.0398V48H60.3846V41.8636C60.3893 41.3238 60.2544 40.9001 59.9798 40.5923C59.7099 40.2845 59.324 40.1307 58.8221 40.1307C58.5049 40.1307 58.2255 40.2017 57.984 40.3437C57.7473 40.481 57.5626 40.6799 57.43 40.9403C57.3022 41.196 57.2359 41.5038 57.2312 41.8636Z" fill="white"/>
<path d="M71.4677 48.1988C70.3029 48.1988 69.2991 47.9763 68.4563 47.5312C67.6183 47.0814 66.9719 46.4375 66.5174 45.5994C66.0676 44.7566 65.8427 43.7481 65.8427 42.5738C65.8427 41.447 66.07 40.4621 66.5245 39.6193C66.979 38.7765 67.6206 38.1207 68.4492 37.652C69.2778 37.1832 70.2556 36.9488 71.3825 36.9488C72.2063 36.9488 72.9521 37.0767 73.6197 37.3324C74.2873 37.5881 74.8578 37.9597 75.3313 38.4474C75.8048 38.9304 76.1694 39.5175 76.4251 40.2088C76.6808 40.9001 76.8086 41.679 76.8086 42.5454V43.4545H67.0643V41.2954H73.2006C73.1959 40.9829 73.1154 40.7083 72.9592 40.4716C72.8076 40.2301 72.6017 40.0431 72.3413 39.9105C72.0856 39.7732 71.7944 39.7045 71.4677 39.7045C71.1505 39.7045 70.8593 39.7732 70.5941 39.9105C70.329 40.0431 70.1159 40.2277 69.9549 40.4645C69.7986 40.7012 69.7158 40.9782 69.7063 41.2954V43.625C69.7063 43.9754 69.7797 44.2879 69.9265 44.5625C70.0733 44.8371 70.284 45.0525 70.5586 45.2088C70.8332 45.365 71.1647 45.4432 71.5529 45.4432C71.8228 45.4432 72.069 45.4053 72.2915 45.3295C72.5188 45.2538 72.713 45.1449 72.8739 45.0028C73.0349 44.856 73.1533 44.6809 73.229 44.4773H76.8086C76.6855 45.2348 76.3943 45.893 75.935 46.4517C75.4757 47.0057 74.8673 47.4365 74.1097 47.7443C73.3569 48.0473 72.4762 48.1988 71.4677 48.1988Z" fill="white"/>
<path d="M41.7136 54.2557C41.652 54.0047 41.555 53.7845 41.4224 53.5952C41.2898 53.401 41.1241 53.2377 40.9252 53.1051C40.7311 52.9678 40.5038 52.866 40.2434 52.7997C39.9877 52.7287 39.706 52.6932 39.3983 52.6932C38.7354 52.6932 38.1696 52.8518 37.7008 53.169C37.2368 53.4863 36.8817 53.9432 36.6355 54.5398C36.394 55.1363 36.2733 55.856 36.2733 56.6988C36.2733 57.5511 36.3893 58.2803 36.6213 58.8863C36.8533 59.4924 37.1989 59.9564 37.6582 60.2784C38.1175 60.6004 38.688 60.7613 39.3699 60.7613C39.9712 60.7613 40.4707 60.6738 40.8684 60.4986C41.2709 60.3234 41.5716 60.0748 41.7704 59.7528C41.9693 59.4309 42.0687 59.0521 42.0687 58.6165L42.7505 58.6875H39.4267V55.875H45.8755V57.892C45.8755 59.2178 45.5938 60.3518 45.0304 61.294C44.4717 62.2315 43.6999 62.9512 42.715 63.4531C41.7349 63.9503 40.6104 64.1988 39.3414 64.1988C37.9257 64.1988 36.6828 63.8982 35.6127 63.2969C34.5427 62.6955 33.707 61.8385 33.1056 60.7258C32.5091 59.6131 32.2108 58.2898 32.2108 56.7557C32.2108 55.553 32.3931 54.4877 32.7576 53.5596C33.127 52.6316 33.6383 51.848 34.2917 51.2088C34.9451 50.5649 35.7003 50.0795 36.5574 49.7528C37.4144 49.4214 38.3329 49.2557 39.313 49.2557C40.1748 49.2557 40.975 49.3788 41.7136 49.625C42.457 49.8665 43.1127 50.2121 43.6809 50.6619C44.2538 51.107 44.7155 51.6349 45.0659 52.2457C45.4163 52.8565 45.6293 53.5265 45.7051 54.2557H41.7136Z" fill="white"/>
<path d="M53.0293 64.1988C51.8456 64.1988 50.8323 63.9645 49.9895 63.4957C49.1467 63.0222 48.5004 62.3641 48.0506 61.5213C47.6008 60.6738 47.3759 59.6913 47.3759 58.5738C47.3759 57.4564 47.6008 56.4763 48.0506 55.6335C48.5004 54.786 49.1467 54.1278 49.9895 53.6591C50.8323 53.1856 51.8456 52.9488 53.0293 52.9488C54.213 52.9488 55.2263 53.1856 56.0691 53.6591C56.9119 54.1278 57.5582 54.786 58.008 55.6335C58.4578 56.4763 58.6827 57.4564 58.6827 58.5738C58.6827 59.6913 58.4578 60.6738 58.008 61.5213C57.5582 62.3641 56.9119 63.0222 56.0691 63.4957C55.2263 63.9645 54.213 64.1988 53.0293 64.1988ZM53.0577 61.3011C53.3891 61.3011 53.6756 61.1899 53.9171 60.9673C54.1586 60.7448 54.3456 60.4275 54.4782 60.0156C54.6107 59.6037 54.677 59.1136 54.677 58.5454C54.677 57.9725 54.6107 57.4825 54.4782 57.0753C54.3456 56.6633 54.1586 56.3461 53.9171 56.1236C53.6756 55.901 53.3891 55.7898 53.0577 55.7898C52.7073 55.7898 52.4067 55.901 52.1557 56.1236C51.9048 56.3461 51.713 56.6633 51.5804 57.0753C51.4479 57.4825 51.3816 57.9725 51.3816 58.5454C51.3816 59.1136 51.4479 59.6037 51.5804 60.0156C51.713 60.4275 51.9048 60.7448 52.1557 60.9673C52.4067 61.1899 52.7073 61.3011 53.0577 61.3011Z" fill="white"/>
<path d="M65.5293 64.1988C64.3456 64.1988 63.3323 63.9645 62.4895 63.4957C61.6467 63.0222 61.0004 62.3641 60.5506 61.5213C60.1008 60.6738 59.8759 59.6913 59.8759 58.5738C59.8759 57.4564 60.1008 56.4763 60.5506 55.6335C61.0004 54.786 61.6467 54.1278 62.4895 53.6591C63.3323 53.1856 64.3456 52.9488 65.5293 52.9488C66.713 52.9488 67.7263 53.1856 68.5691 53.6591C69.4119 54.1278 70.0582 54.786 70.508 55.6335C70.9578 56.4763 71.1827 57.4564 71.1827 58.5738C71.1827 59.6913 70.9578 60.6738 70.508 61.5213C70.0582 62.3641 69.4119 63.0222 68.5691 63.4957C67.7263 63.9645 66.713 64.1988 65.5293 64.1988ZM65.5577 61.3011C65.8891 61.3011 66.1756 61.1899 66.4171 60.9673C66.6586 60.7448 66.8456 60.4275 66.9782 60.0156C67.1107 59.6037 67.177 59.1136 67.177 58.5454C67.177 57.9725 67.1107 57.4825 66.9782 57.0753C66.8456 56.6633 66.6586 56.3461 66.4171 56.1236C66.1756 55.901 65.8891 55.7898 65.5577 55.7898C65.2073 55.7898 64.9067 55.901 64.6557 56.1236C64.4048 56.3461 64.213 56.6633 64.0804 57.0753C63.9479 57.4825 63.8816 57.9725 63.8816 58.5454C63.8816 59.1136 63.9479 59.6037 64.0804 60.0156C64.213 60.4275 64.4048 60.7448 64.6557 60.9673C64.9067 61.1899 65.2073 61.3011 65.5577 61.3011Z" fill="white"/>
<path d="M76.7225 64.142C75.946 64.142 75.231 63.9384 74.5776 63.5312C73.9289 63.124 73.4081 62.5061 73.0151 61.6775C72.6268 60.8489 72.4327 59.8049 72.4327 58.5454C72.4327 57.2292 72.6363 56.1591 73.0435 55.3352C73.4554 54.5113 73.9857 53.9077 74.6344 53.5241C75.2878 53.1406 75.9744 52.9488 76.6941 52.9488C77.2338 52.9488 77.7073 53.0435 78.1145 53.2329C78.5217 53.4176 78.8626 53.6662 79.1373 53.9787C79.4119 54.2864 79.6202 54.625 79.7623 54.9943H79.8191V49.4545H83.7395V64H79.8475V62.2102H79.7623C79.6107 62.5795 79.3929 62.911 79.1088 63.2045C78.8295 63.4934 78.4886 63.723 78.0861 63.8934C77.6884 64.0592 77.2338 64.142 76.7225 64.142ZM78.1713 61.1307C78.5312 61.1307 78.839 61.0265 79.0946 60.8182C79.3551 60.6051 79.5539 60.3068 79.6912 59.9233C79.8333 59.535 79.9043 59.0757 79.9043 58.5454C79.9043 58.0057 79.8333 57.544 79.6912 57.1605C79.5539 56.7722 79.3551 56.4763 79.0946 56.2727C78.839 56.0644 78.5312 55.9602 78.1713 55.9602C77.8115 55.9602 77.5037 56.0644 77.248 56.2727C76.9971 56.4763 76.803 56.7722 76.6657 57.1605C76.5331 57.544 76.4668 58.0057 76.4668 58.5454C76.4668 59.0852 76.5331 59.5492 76.6657 59.9375C76.803 60.321 76.9971 60.6169 77.248 60.8253C77.5037 61.0289 77.8115 61.1307 78.1713 61.1307Z" fill="white"/>
<path d="M31.3594 80V65.4545H37.6378C38.7173 65.4545 39.6619 65.6676 40.4716 66.0937C41.2813 66.5199 41.911 67.1188 42.3608 67.8906C42.8106 68.6624 43.0355 69.5644 43.0355 70.5966C43.0355 71.6382 42.8035 72.5402 42.3395 73.3025C41.8802 74.0649 41.2339 74.652 40.4006 75.0639C39.572 75.4758 38.6037 75.6818 37.4957 75.6818H33.7457V72.6136H36.7003C37.1643 72.6136 37.5597 72.5331 37.8864 72.3721C38.2178 72.2064 38.4711 71.972 38.6463 71.669C38.8262 71.366 38.9162 71.0085 38.9162 70.5966C38.9162 70.1799 38.8262 69.8248 38.6463 69.5312C38.4711 69.2329 38.2178 69.0057 37.8864 68.8494C37.5597 68.6884 37.1643 68.6079 36.7003 68.6079H35.3082V80H31.3594Z" fill="white"/>
<path d="M48.4616 65.4545V80H44.5412V65.4545H48.4616Z" fill="white"/>
<path d="M53.4989 80.1704C52.8029 80.1704 52.1874 80.0568 51.6523 79.8295C51.122 79.5975 50.7054 79.2471 50.4023 78.7784C50.0993 78.3096 49.9478 77.7131 49.9478 76.9886C49.9478 76.392 50.0496 75.883 50.2532 75.4616C50.4568 75.0355 50.7409 74.6875 51.1055 74.4176C51.4701 74.1477 51.8938 73.9417 52.3768 73.7997C52.8645 73.6577 53.39 73.5653 53.9535 73.5227C54.5643 73.4754 55.0543 73.4185 55.4237 73.3523C55.7977 73.2812 56.0676 73.1842 56.2333 73.0611C56.399 72.9332 56.4819 72.7651 56.4819 72.5568V72.5284C56.4819 72.2443 56.373 72.0265 56.1552 71.875C55.9374 71.7235 55.658 71.6477 55.3171 71.6477C54.9431 71.6477 54.6377 71.7306 54.4009 71.8963C54.1689 72.0573 54.0292 72.3059 53.9819 72.642H50.3739C50.4213 71.9792 50.632 71.3684 51.006 70.8096C51.3848 70.2462 51.9364 69.7964 52.6609 69.4602C53.3853 69.1193 54.2897 68.9488 55.3739 68.9488C56.1552 68.9488 56.8559 69.0412 57.4762 69.2258C58.0965 69.4058 58.6244 69.6591 59.06 69.9858C59.4956 70.3077 59.8271 70.6865 60.0543 71.1221C60.2863 71.553 60.4023 72.0218 60.4023 72.5284V80H56.7376V78.4659H56.6523C56.4345 78.8731 56.1694 79.2022 55.8569 79.4531C55.5491 79.7041 55.1964 79.8863 54.7987 80C54.4057 80.1136 53.9724 80.1704 53.4989 80.1704ZM54.7773 77.6988C55.0756 77.6988 55.355 77.6373 55.6154 77.5142C55.8806 77.3911 56.096 77.2135 56.2617 76.9815C56.4274 76.7495 56.5103 76.4678 56.5103 76.1363V75.2273C56.4061 75.2699 56.2949 75.3101 56.1765 75.348C56.0629 75.3859 55.9398 75.4214 55.8072 75.4545C55.6793 75.4877 55.542 75.5185 55.3952 75.5469C55.2532 75.5753 55.104 75.6013 54.9478 75.625C54.6448 75.6723 54.3962 75.7505 54.2021 75.8594C54.0127 75.9635 53.8706 76.0937 53.7759 76.25C53.686 76.4015 53.641 76.572 53.641 76.7613C53.641 77.0644 53.7475 77.2964 53.9606 77.4574C54.1737 77.6184 54.4459 77.6988 54.7773 77.6988Z" fill="white"/>
<path d="M67.5312 80.1988C66.3475 80.1988 65.3343 79.9645 64.4915 79.4957C63.6487 79.0222 63.0024 78.3641 62.5526 77.5213C62.1027 76.6738 61.8778 75.6913 61.8778 74.5738C61.8778 73.4564 62.1027 72.4763 62.5526 71.6335C63.0024 70.786 63.6487 70.1278 64.4915 69.6591C65.3343 69.1856 66.3475 68.9488 67.5312 68.9488C68.6013 68.9488 69.527 69.143 70.3082 69.5312C71.0942 69.9148 71.7027 70.4593 72.1335 71.1648C72.5644 71.8655 72.7822 72.6894 72.7869 73.6363H69.1506C69.0985 73.0634 68.9328 72.6278 68.6534 72.3295C68.3788 72.0265 68.0237 71.875 67.5881 71.875C67.2472 71.875 66.9489 71.9744 66.6932 72.1733C66.4375 72.3674 66.2386 72.6633 66.0966 73.0611C65.9545 73.4541 65.8835 73.9488 65.8835 74.5454C65.8835 75.142 65.9545 75.6392 66.0966 76.0369C66.2386 76.4299 66.4375 76.7258 66.6932 76.9247C66.9489 77.1188 67.2472 77.2159 67.5881 77.2159C67.8769 77.2159 68.1326 77.1496 68.3551 77.017C68.5777 76.8797 68.7576 76.6809 68.8949 76.4204C69.0369 76.1553 69.1222 75.8333 69.1506 75.4545H72.7869C72.7727 76.4157 72.5526 77.2538 72.1264 77.9687C71.7003 78.679 71.0966 79.2282 70.3153 79.6165C69.5388 80.0047 68.6108 80.1988 67.5312 80.1988Z" fill="white"/>
<path d="M79.6317 80.1988C78.467 80.1988 77.4632 79.9763 76.6204 79.5312C75.7823 79.0814 75.136 78.4375 74.6815 77.5994C74.2317 76.7566 74.0067 75.7481 74.0067 74.5738C74.0067 73.447 74.234 72.4621 74.6886 71.6193C75.1431 70.7765 75.7847 70.1207 76.6133 69.652C77.4419 69.1832 78.4196 68.9488 79.5465 68.9488C80.3704 68.9488 81.1161 69.0767 81.7837 69.3324C82.4514 69.5881 83.0219 69.9597 83.4954 70.4474C83.9689 70.9304 84.3335 71.5175 84.5891 72.2088C84.8448 72.9001 84.9727 73.679 84.9727 74.5454V75.4545H75.2283V73.2954H81.3647C81.36 72.9829 81.2795 72.7083 81.1232 72.4716C80.9717 72.2301 80.7657 72.0431 80.5053 71.9105C80.2496 71.7732 79.9585 71.7045 79.6317 71.7045C79.3145 71.7045 79.0233 71.7732 78.7582 71.9105C78.493 72.0431 78.2799 72.2277 78.119 72.4645C77.9627 72.7012 77.8799 72.9782 77.8704 73.2954V75.625C77.8704 75.9754 77.9438 76.2879 78.0906 76.5625C78.2373 76.8371 78.448 77.0525 78.7227 77.2088C78.9973 77.365 79.3287 77.4432 79.717 77.4432C79.9869 77.4432 80.2331 77.4053 80.4556 77.3295C80.6829 77.2538 80.877 77.1449 81.038 77.0028C81.199 76.856 81.3174 76.6809 81.3931 76.4773H84.9727C84.8496 77.2348 84.5584 77.893 84.0991 78.4517C83.6398 79.0057 83.0314 79.4365 82.2738 79.7443C81.521 80.0473 80.6403 80.1988 79.6317 80.1988Z" fill="white"/>
</svg>
